<mxfile host="app.diagrams.net" modified="2023-06-20T08:15:33.299Z" agent="Mozilla/5.0 (Windows NT 10.0; Win64; x64) AppleWebKit/537.36 (KHTML, like Gecko) Chrome/114.0.0.0 Safari/537.36" etag="ErvOSJCnwTxQOJUZbeun" version="21.5.0" type="device">
  <diagram name="Halaman-1" id="MfYiTMshMia7dddQvLsD">
    <mxGraphModel dx="989" dy="503" grid="1" gridSize="10" guides="1" tooltips="1" connect="1" arrows="1" fold="1" page="1" pageScale="1" pageWidth="827" pageHeight="1169" math="0" shadow="0">
      <root>
        <mxCell id="0" />
        <mxCell id="1" parent="0" />
        <mxCell id="nRK3xLtQ6KZJVQRTyTja-11" value="Activity Diagram Melihat Dokter berdasarkan Spesialis" style="swimlane;childLayout=stackLayout;resizeParent=1;resizeParentMax=0;startSize=20;html=1;" vertex="1" parent="1">
          <mxGeometry x="230.00000000000045" y="140" width="490" height="370" as="geometry" />
        </mxCell>
        <mxCell id="nRK3xLtQ6KZJVQRTyTja-12" value="Member" style="swimlane;startSize=20;html=1;" vertex="1" parent="nRK3xLtQ6KZJVQRTyTja-11">
          <mxGeometry y="20" width="260" height="350" as="geometry" />
        </mxCell>
        <mxCell id="nRK3xLtQ6KZJVQRTyTja-18" value="" style="edgeStyle=orthogonalEdgeStyle;rounded=0;orthogonalLoop=1;jettySize=auto;html=1;" edge="1" parent="nRK3xLtQ6KZJVQRTyTja-12" source="nRK3xLtQ6KZJVQRTyTja-15" target="nRK3xLtQ6KZJVQRTyTja-16">
          <mxGeometry relative="1" as="geometry" />
        </mxCell>
        <mxCell id="nRK3xLtQ6KZJVQRTyTja-15" value="" style="ellipse;html=1;shape=endState;fillColor=#000000;strokeColor=#ff0000;" vertex="1" parent="nRK3xLtQ6KZJVQRTyTja-12">
          <mxGeometry x="114.99999999999955" y="30" width="30" height="30" as="geometry" />
        </mxCell>
        <mxCell id="nRK3xLtQ6KZJVQRTyTja-16" value="Halaman Utama" style="rounded=1;whiteSpace=wrap;html=1;arcSize=40;fontColor=#000000;fillColor=default;strokeColor=default;" vertex="1" parent="nRK3xLtQ6KZJVQRTyTja-12">
          <mxGeometry x="69.99999999999955" y="80" width="120" height="40" as="geometry" />
        </mxCell>
        <mxCell id="nRK3xLtQ6KZJVQRTyTja-17" value="" style="edgeStyle=orthogonalEdgeStyle;html=1;verticalAlign=bottom;endArrow=open;endSize=8;strokeColor=default;rounded=0;" edge="1" source="nRK3xLtQ6KZJVQRTyTja-16" parent="nRK3xLtQ6KZJVQRTyTja-12">
          <mxGeometry relative="1" as="geometry">
            <mxPoint x="129.99999999999955" y="150" as="targetPoint" />
          </mxGeometry>
        </mxCell>
        <mxCell id="nRK3xLtQ6KZJVQRTyTja-19" value="Memilih menu konsultasi chat" style="rounded=1;whiteSpace=wrap;html=1;arcSize=40;fontColor=#000000;fillColor=default;strokeColor=default;" vertex="1" parent="nRK3xLtQ6KZJVQRTyTja-12">
          <mxGeometry x="69.99999999999955" y="150" width="120" height="40" as="geometry" />
        </mxCell>
        <mxCell id="nRK3xLtQ6KZJVQRTyTja-23" value="Menekan icon atau nama spesialis" style="rounded=1;whiteSpace=wrap;html=1;arcSize=40;fontColor=#000000;fillColor=default;strokeColor=default;" vertex="1" parent="nRK3xLtQ6KZJVQRTyTja-12">
          <mxGeometry x="69.99999999999955" y="240" width="120" height="40" as="geometry" />
        </mxCell>
        <mxCell id="nRK3xLtQ6KZJVQRTyTja-13" value="Sistem" style="swimlane;startSize=20;html=1;" vertex="1" parent="nRK3xLtQ6KZJVQRTyTja-11">
          <mxGeometry x="260" y="20" width="230" height="350" as="geometry" />
        </mxCell>
        <mxCell id="nRK3xLtQ6KZJVQRTyTja-20" value="Menampilkan daftar dokter, perawat, dan spesialis" style="rounded=1;whiteSpace=wrap;html=1;arcSize=40;fontColor=#000000;fillColor=default;strokeColor=default;" vertex="1" parent="nRK3xLtQ6KZJVQRTyTja-13">
          <mxGeometry x="60" y="145" width="130" height="50" as="geometry" />
        </mxCell>
        <mxCell id="nRK3xLtQ6KZJVQRTyTja-28" style="edgeStyle=orthogonalEdgeStyle;rounded=0;orthogonalLoop=1;jettySize=auto;html=1;entryX=0.5;entryY=0;entryDx=0;entryDy=0;" edge="1" parent="nRK3xLtQ6KZJVQRTyTja-13" source="nRK3xLtQ6KZJVQRTyTja-25" target="nRK3xLtQ6KZJVQRTyTja-27">
          <mxGeometry relative="1" as="geometry" />
        </mxCell>
        <mxCell id="nRK3xLtQ6KZJVQRTyTja-25" value="Menampilkan daftar dokter berdasarkan spesialis" style="rounded=1;whiteSpace=wrap;html=1;arcSize=40;fontColor=#000000;fillColor=default;strokeColor=default;" vertex="1" parent="nRK3xLtQ6KZJVQRTyTja-13">
          <mxGeometry x="64.99999999999955" y="240" width="120" height="40" as="geometry" />
        </mxCell>
        <mxCell id="nRK3xLtQ6KZJVQRTyTja-27" value="" style="ellipse;html=1;shape=endState;fillColor=#000000;strokeColor=#ff0000;" vertex="1" parent="nRK3xLtQ6KZJVQRTyTja-13">
          <mxGeometry x="109.99999999999955" y="310" width="30" height="30" as="geometry" />
        </mxCell>
        <mxCell id="nRK3xLtQ6KZJVQRTyTja-21" style="edgeStyle=orthogonalEdgeStyle;rounded=0;orthogonalLoop=1;jettySize=auto;html=1;" edge="1" parent="nRK3xLtQ6KZJVQRTyTja-11" source="nRK3xLtQ6KZJVQRTyTja-19">
          <mxGeometry relative="1" as="geometry">
            <mxPoint x="319.99999999999955" y="190" as="targetPoint" />
          </mxGeometry>
        </mxCell>
        <mxCell id="nRK3xLtQ6KZJVQRTyTja-24" style="edgeStyle=orthogonalEdgeStyle;rounded=0;orthogonalLoop=1;jettySize=auto;html=1;" edge="1" parent="nRK3xLtQ6KZJVQRTyTja-11" source="nRK3xLtQ6KZJVQRTyTja-20" target="nRK3xLtQ6KZJVQRTyTja-23">
          <mxGeometry relative="1" as="geometry">
            <Array as="points">
              <mxPoint x="385" y="230" />
              <mxPoint x="130" y="230" />
            </Array>
          </mxGeometry>
        </mxCell>
        <mxCell id="nRK3xLtQ6KZJVQRTyTja-26" style="edgeStyle=orthogonalEdgeStyle;rounded=0;orthogonalLoop=1;jettySize=auto;html=1;" edge="1" parent="nRK3xLtQ6KZJVQRTyTja-11" source="nRK3xLtQ6KZJVQRTyTja-23" target="nRK3xLtQ6KZJVQRTyTja-25">
          <mxGeometry relative="1" as="geometry" />
        </mxCell>
      </root>
    </mxGraphModel>
  </diagram>
</mxfile>
